<svg width="70" height="70" viewBox="0 0 70 70" fill="none" xmlns="http://www.w3.org/2000/svg">
<circle cx="35" cy="35" r="34" fill="white" stroke="#DBDEEE" stroke-width="2"/>
<path d="M19 27.1133V44.5722C19 45.9529 20.1193 47.0722 21.5 47.0722H48.5C49.8807 47.0722 51 45.9529 51 44.5722V27.1133L19 27.1133Z" fill="url(#paint0_linear)"/>
<path d="M19 25.5C19 24.1193 20.1193 23 21.5 23H48.5C49.8807 23 51 24.1193 51 25.5V28H19V25.5Z" fill="#403C5E"/>
<path d="M22 25.7C22 25.3134 22.3134 25 22.7 25H23.2932C23.6798 25 23.9932 25.3134 23.9932 25.7C23.9932 26.0866 23.6798 26.4 23.2932 26.4H22.7C22.3134 26.4 22 26.0866 22 25.7Z" fill="white"/>
<path d="M25.9866 25.7C25.9866 25.3134 26.3 25 26.6866 25H27.28C27.6666 25 27.98 25.3134 27.98 25.7C27.98 26.0866 27.6666 26.4 27.28 26.4H26.6866C26.3 26.4 25.9866 26.0866 25.9866 25.7Z" fill="white"/>
<path d="M29.9731 25.7C29.9731 25.3134 30.2865 25 30.6731 25H31.2665C31.6531 25 31.9665 25.3134 31.9665 25.7C31.9665 26.0866 31.6531 26.4 31.2665 26.4H30.6731C30.2865 26.4 29.9731 26.0866 29.9731 25.7Z" fill="white"/>
<path d="M30.5076 42.9099L25.8523 36.9937L30.5076 31.0771L31.9812 32.2366L28.2383 36.9937L31.9812 41.7502L30.5076 42.9099Z" fill="white"/>
<path d="M39.4924 42.9099L38.0188 41.7502L41.7617 36.9937L38.0188 32.2366L39.4924 31.0771L44.1477 36.9937L39.4924 42.9099Z" fill="white"/>
<path d="M34.0625 31.0146H35.9375V42.9719H34.0625V31.0146Z" fill="white"/>
<defs>
<linearGradient id="paint0_linear" x1="19" y1="27.024" x2="51" y2="47.0722" gradientUnits="userSpaceOnUse">
<stop stop-color="#CC86AC"/>
<stop offset="0.171875" stop-color="#B53F8E"/>
<stop offset="0.526042" stop-color="#5AB0C1"/>
<stop offset="1" stop-color="#387EBB"/>
</linearGradient>
</defs>
</svg>
