<svg width="70" height="70" viewBox="0 0 70 70" fill="none" xmlns="http://www.w3.org/2000/svg">
<circle cx="35" cy="35" r="34" fill="white" stroke="#DBDEEE" stroke-width="2"/>
<g clip-path="url(#clip0)">
<path d="M31.8596 50.3203C32.7656 51.2263 34.2343 51.2263 35.14 50.3203L35.96 49.5006L30.2194 43.7598L27.7595 46.2202L31.8596 50.3203Z" fill="#403C5D"/>
<path d="M27.7595 46.2202L30.2194 43.7598L27.7595 46.2202Z" fill="#FFCD00"/>
<path d="M47.7806 20.219C45.7176 18.1487 42.9123 16.9899 39.9895 17.0001C39.6693 17.0001 39.4097 17.2597 39.4097 17.5799C39.4097 17.9002 39.6693 18.1598 39.9895 18.1598C42.6031 18.1564 45.1106 19.1929 46.9586 21.041C48.8066 22.889 49.8432 25.3964 49.8398 28.0101C49.8398 28.3303 50.0994 28.5899 50.4197 28.5899C50.7399 28.5899 50.9995 28.3303 50.9995 28.0101C51.0097 25.0873 49.8508 22.282 47.7806 20.219Z" fill="#413D5E"/>
<path d="M44.5003 23.4994C45.7 24.6939 46.3736 26.3177 46.3721 28.0108C46.3721 28.3311 46.6318 28.5907 46.952 28.5907C47.2722 28.5907 47.5319 28.3311 47.5319 28.0108C47.5248 23.8505 44.1538 20.4795 39.9937 20.4727C39.6735 20.4727 39.4138 20.7323 39.4138 21.0525C39.4138 21.3727 39.6735 21.6324 39.9937 21.6324C41.6843 21.631 43.3058 22.3028 44.5003 23.4994Z" fill="#413D5E"/>
<path d="M29.3999 21.6184L30.4458 20.5724C31.2269 19.7914 32.4932 19.7914 33.2743 20.5724L40.0605 27.3586L37.6003 29.8188L29.3999 21.6184Z" fill="#413D5E"/>
<path d="M37.6001 29.8188L40.0602 27.3587L46.8464 34.1449C47.6275 34.9259 47.6275 36.1923 46.8464 36.9733L45.8005 38.0193L37.6001 29.8188Z" fill="#413D5E"/>
<path d="M37.5999 29.8199L29.3995 21.6191L23.6595 37.2004L26.9396 40.4802L37.5999 29.8199Z" fill="url(#paint0_linear)"/>
<path d="M26.9396 40.4802L30.2195 43.7603L45.8007 38.0203L37.5999 29.8199L26.9396 40.4802Z" fill="url(#paint1_linear)"/>
<path d="M23.6595 37.2004L20.3791 40.4802C18.5673 42.2917 18.5673 45.2292 20.3791 47.0407L26.9396 40.4802L23.6595 37.2004Z" fill="url(#paint2_linear)"/>
<path d="M20.3791 47.0407C22.1906 48.8525 25.1281 48.8525 26.9396 47.0407L30.2195 43.7603L26.9396 40.4802L20.3791 47.0407Z" fill="url(#paint3_linear)"/>
</g>
<defs>
<linearGradient id="paint0_linear" x1="40.4998" y1="33.5005" x2="19.4998" y2="45.5005" gradientUnits="userSpaceOnUse">
<stop stop-color="#B3328A"/>
<stop offset="0.193731" stop-color="#815DA3"/>
<stop offset="0.448889" stop-color="#4292C2"/>
<stop offset="0.698199" stop-color="#7DBEB7"/>
<stop offset="1" stop-color="#E5B9D0"/>
</linearGradient>
<linearGradient id="paint1_linear" x1="40.4998" y1="33.5005" x2="19.4998" y2="45.5005" gradientUnits="userSpaceOnUse">
<stop stop-color="#B3328A"/>
<stop offset="0.193731" stop-color="#815DA3"/>
<stop offset="0.448889" stop-color="#4292C2"/>
<stop offset="0.698199" stop-color="#7DBEB7"/>
<stop offset="1" stop-color="#E5B9D0"/>
</linearGradient>
<linearGradient id="paint2_linear" x1="40.4998" y1="33.5005" x2="19.4998" y2="45.5005" gradientUnits="userSpaceOnUse">
<stop stop-color="#B3328A"/>
<stop offset="0.193731" stop-color="#815DA3"/>
<stop offset="0.448889" stop-color="#4292C2"/>
<stop offset="0.698199" stop-color="#7DBEB7"/>
<stop offset="1" stop-color="#E5B9D0"/>
</linearGradient>
<linearGradient id="paint3_linear" x1="40.4998" y1="33.5005" x2="19.4998" y2="45.5005" gradientUnits="userSpaceOnUse">
<stop stop-color="#B3328A"/>
<stop offset="0.193731" stop-color="#815DA3"/>
<stop offset="0.448889" stop-color="#4292C2"/>
<stop offset="0.698199" stop-color="#7DBEB7"/>
<stop offset="1" stop-color="#E5B9D0"/>
</linearGradient>
<clipPath id="clip0">
<rect width="34" height="34" fill="white" transform="translate(18 17)"/>
</clipPath>
</defs>
</svg>
