<svg width="413" height="480" viewBox="0 0 413 480" fill="none" xmlns="http://www.w3.org/2000/svg">
<path d="M77.367 167.385H204.669C210.18 167.385 215.466 169.576 219.363 173.478C223.26 177.379 225.449 182.67 225.449 188.188V444.848C225.449 450.365 223.26 455.656 219.363 459.557C215.466 463.459 210.18 465.65 204.669 465.65H77.367C71.8556 465.65 66.57 463.459 62.6729 459.557C58.7758 455.656 56.5864 450.365 56.5864 444.848V188.188C56.5864 182.67 58.7758 177.379 62.6729 173.478C66.57 169.576 71.8556 167.385 77.367 167.385Z" fill="url(#paint0_linear)"/>
<path d="M218.039 185.287V433.358C218.025 436.149 216.911 438.822 214.939 440.795C212.968 442.769 210.298 443.884 207.51 443.899H74.5256C71.7408 443.89 69.0735 442.775 67.1096 440.798C65.1457 438.822 64.0459 436.146 64.0518 433.358V185.287C64.0459 182.499 65.1457 179.823 67.1096 177.847C69.0735 175.87 71.7408 174.755 74.5256 174.746H100.822V178.037C100.822 180.847 101.937 183.542 103.922 185.53C105.907 187.517 108.599 188.633 111.407 188.633H170.406C173.213 188.633 175.906 187.517 177.891 185.53C179.876 183.542 180.991 180.847 180.991 178.037V174.746H207.51C208.893 174.745 210.263 175.016 211.541 175.545C212.819 176.075 213.981 176.851 214.959 177.83C215.937 178.809 216.712 179.972 217.241 181.251C217.769 182.531 218.041 183.902 218.039 185.287Z" fill="#E0F2F2"/>
<path d="M125.781 175.639H156.255C156.438 175.637 156.62 175.672 156.79 175.742C156.959 175.811 157.113 175.914 157.243 176.044C157.373 176.174 157.475 176.328 157.545 176.498C157.614 176.668 157.649 176.849 157.648 177.033V177.312C157.649 177.495 157.614 177.677 157.545 177.847C157.475 178.017 157.373 178.171 157.243 178.301C157.113 178.431 156.959 178.534 156.79 178.603C156.62 178.673 156.438 178.708 156.255 178.706H125.781C125.597 178.708 125.415 178.673 125.246 178.603C125.076 178.534 124.922 178.431 124.792 178.301C124.663 178.171 124.56 178.017 124.491 177.847C124.421 177.677 124.386 177.495 124.388 177.312V177.033C124.393 176.665 124.542 176.314 124.802 176.053C125.062 175.793 125.413 175.644 125.781 175.639Z" fill="url(#paint1_linear)"/>
<path d="M206.507 174.746V399.003C206.501 404.045 204.498 408.879 200.936 412.444C197.375 416.01 192.546 418.015 187.509 418.021H64.0518V185.287C64.0459 182.499 65.1457 179.823 67.1096 177.847C69.0735 175.87 71.7408 174.755 74.5256 174.746H100.822V178.037C100.822 180.847 101.937 183.542 103.922 185.53C105.907 187.517 108.599 188.633 111.407 188.633H170.406C173.213 188.633 175.906 187.517 177.891 185.53C179.876 183.542 180.991 180.847 180.991 178.037V174.746H206.507Z" fill="#A3D8D8"/>
<path d="M94.415 273.629H250.743C253.446 273.63 256.038 274.706 257.95 276.62C259.862 278.534 260.936 281.129 260.938 283.835V322.373C260.936 325.08 259.862 327.675 257.95 329.588C256.038 331.502 253.446 332.578 250.743 332.579H94.415C91.7115 332.578 89.1191 331.502 87.2075 329.588C85.2958 327.675 84.2212 325.08 84.2197 322.373V283.835C84.2212 281.129 85.2958 278.534 87.2075 276.62C89.1191 274.706 91.7115 273.63 94.415 273.629Z" fill="#68E1FD"/>
<path d="M94.415 273.629H250.743C253.446 273.63 256.038 274.706 257.95 276.62C259.862 278.534 260.936 281.129 260.938 283.835V322.373C260.936 325.08 259.862 327.675 257.95 329.588C256.038 331.502 253.446 332.578 250.743 332.579H94.415C91.7115 332.578 89.1191 331.502 87.2075 329.588C85.2958 327.675 84.2212 325.08 84.2197 322.373V283.835C84.2212 281.129 85.2958 278.534 87.2075 276.62C89.1191 274.706 91.7115 273.63 94.415 273.629Z" fill="url(#paint2_linear)"/>
<path d="M97.479 269.948H253.806C256.51 269.95 259.102 271.025 261.014 272.939C262.926 274.853 264 277.448 264.002 280.154V318.692C264 321.399 262.926 323.994 261.014 325.908C259.102 327.821 256.51 328.897 253.806 328.899H97.479C94.7755 328.897 92.1831 327.821 90.2714 325.908C88.3598 323.994 87.2852 321.399 87.2837 318.692V280.154C87.2852 277.448 88.3598 274.853 90.2714 272.939C92.1831 271.025 94.7755 269.95 97.479 269.948Z" fill="white"/>
<path d="M106.17 204.361H79.7627V230.797H106.17V204.361Z" fill="white"/>
<path d="M103.273 280.768H130.015C131.419 280.768 132.765 281.326 133.757 282.32C134.75 283.313 135.308 284.661 135.308 286.066V312.836C135.308 313.532 135.171 314.221 134.905 314.864C134.639 315.507 134.249 316.091 133.757 316.583C133.266 317.075 132.682 317.465 132.04 317.731C131.398 317.998 130.71 318.135 130.015 318.135H103.273C102.578 318.135 101.89 317.998 101.248 317.731C100.606 317.465 100.022 317.075 99.5308 316.583C99.0393 316.091 98.6495 315.507 98.3835 314.864C98.1175 314.221 97.9806 313.532 97.9806 312.836V286.066C97.9754 285.369 98.1088 284.677 98.3729 284.032C98.6371 283.387 99.0267 282.801 99.5192 282.308C100.012 281.815 100.597 281.425 101.242 281.16C101.886 280.896 102.577 280.763 103.273 280.768Z" fill="#EBEBF0"/>
<path d="M106.17 237.154H79.7627V263.59H106.17V237.154Z" fill="white"/>
<path d="M106.17 341.447H79.7627V367.883H106.17V341.447Z" fill="white"/>
<path d="M106.17 374.24H79.7627V400.676H106.17V374.24Z" fill="white"/>
<path opacity="0.38" d="M135.252 307.873V312.836C135.252 313.532 135.115 314.221 134.849 314.864C134.583 315.507 134.193 316.091 133.702 316.583C133.21 317.075 132.627 317.465 131.985 317.731C131.342 317.998 130.654 318.135 129.959 318.135H103.217C102.522 318.135 101.834 317.998 101.192 317.731C100.55 317.465 99.9664 317.075 99.475 316.583C98.9835 316.091 98.5937 315.507 98.3277 314.864C98.0617 314.221 97.9248 313.532 97.9248 312.836V307.873C102.377 304.918 107.412 302.959 112.688 302.128C111.157 301.27 109.955 299.925 109.27 298.307C108.586 296.689 108.459 294.89 108.908 293.191C109.358 291.493 110.359 289.992 111.753 288.926C113.148 287.859 114.858 287.287 116.613 287.3C118.368 287.313 120.069 287.91 121.448 288.996C122.828 290.083 123.807 291.598 124.231 293.303C124.656 295.008 124.502 296.806 123.794 298.413C123.086 300.021 121.865 301.348 120.321 302.184C128.232 303.467 135.252 307.873 135.252 307.873Z" fill="white"/>
<path d="M250.798 287.293H149.959C149.516 287.293 149.091 287.116 148.778 286.803C148.464 286.489 148.288 286.063 148.288 285.619C148.288 285.176 148.464 284.75 148.778 284.436C149.091 284.123 149.516 283.946 149.959 283.946H250.798C251.241 283.946 251.666 284.123 251.98 284.436C252.293 284.75 252.469 285.176 252.469 285.619C252.469 286.063 252.293 286.489 251.98 286.803C251.666 287.116 251.241 287.293 250.798 287.293Z" fill="#EBEBF0"/>
<path d="M116.031 211.276H210.518C210.932 211.276 211.329 211.441 211.622 211.734C211.914 212.027 212.078 212.424 212.078 212.838C212.078 213.252 211.914 213.649 211.622 213.942C211.329 214.235 210.932 214.4 210.518 214.4H116.031C115.826 214.4 115.623 214.359 115.434 214.281C115.245 214.202 115.073 214.087 114.928 213.942C114.783 213.797 114.668 213.625 114.59 213.436C114.512 213.246 114.471 213.043 114.471 212.838C114.471 212.633 114.512 212.43 114.59 212.24C114.668 212.051 114.783 211.879 114.928 211.734C115.073 211.589 115.245 211.474 115.434 211.395C115.623 211.317 115.826 211.276 116.031 211.276Z" fill="white"/>
<path d="M210.518 224.996H116.031C115.826 224.996 115.623 224.956 115.434 224.877C115.245 224.799 115.073 224.684 114.928 224.539C114.783 224.394 114.668 224.222 114.59 224.032C114.512 223.843 114.471 223.64 114.471 223.435C114.471 223.23 114.512 223.027 114.59 222.837C114.668 222.648 114.783 222.475 114.928 222.33C115.073 222.185 115.245 222.07 115.434 221.992C115.623 221.913 115.826 221.873 116.031 221.873H210.518C210.932 221.873 211.329 222.038 211.622 222.33C211.914 222.623 212.078 223.02 212.078 223.435C212.07 223.846 211.903 224.238 211.612 224.529C211.321 224.82 210.929 224.988 210.518 224.996Z" fill="white"/>
<path d="M210.518 246.301H116.031C115.826 246.301 115.623 246.261 115.434 246.182C115.245 246.104 115.073 245.989 114.928 245.844C114.783 245.699 114.668 245.526 114.59 245.337C114.512 245.147 114.471 244.944 114.471 244.739C114.471 244.534 114.512 244.331 114.59 244.142C114.668 243.952 114.783 243.78 114.928 243.635C115.073 243.49 115.245 243.375 115.434 243.297C115.623 243.218 115.826 243.178 116.031 243.178H210.518C210.932 243.178 211.329 243.342 211.622 243.635C211.914 243.928 212.078 244.325 212.078 244.739C212.07 245.151 211.903 245.543 211.612 245.834C211.321 246.125 210.929 246.292 210.518 246.301Z" fill="white"/>
<path d="M210.518 255.28H116.031C115.826 255.28 115.623 255.24 115.434 255.162C115.245 255.083 115.073 254.968 114.928 254.823C114.783 254.678 114.668 254.506 114.59 254.316C114.512 254.127 114.471 253.924 114.471 253.719C114.471 253.514 114.512 253.311 114.59 253.121C114.668 252.932 114.783 252.76 114.928 252.615C115.073 252.47 115.245 252.355 115.434 252.276C115.623 252.198 115.826 252.157 116.031 252.157H210.518C210.932 252.157 211.329 252.322 211.622 252.615C211.914 252.907 212.078 253.305 212.078 253.719C212.07 254.13 211.903 254.523 211.612 254.814C211.321 255.105 210.929 255.272 210.518 255.28Z" fill="white"/>
<path d="M210.518 351.765H116.031C115.826 351.765 115.623 351.724 115.434 351.646C115.245 351.567 115.073 351.452 114.928 351.307C114.783 351.162 114.668 350.99 114.59 350.801C114.512 350.611 114.471 350.408 114.471 350.203C114.471 349.998 114.512 349.795 114.59 349.606C114.668 349.416 114.783 349.244 114.928 349.099C115.073 348.954 115.245 348.839 115.434 348.76C115.623 348.682 115.826 348.642 116.031 348.642H210.518C210.932 348.642 211.329 348.806 211.622 349.099C211.914 349.392 212.078 349.789 212.078 350.203C212.07 350.615 211.903 351.007 211.612 351.298C211.321 351.589 210.929 351.756 210.518 351.765Z" fill="white"/>
<path d="M210.518 360.744H116.031C115.826 360.744 115.623 360.704 115.434 360.625C115.245 360.547 115.073 360.432 114.928 360.287C114.783 360.142 114.668 359.97 114.59 359.78C114.512 359.591 114.471 359.388 114.471 359.183C114.471 358.978 114.512 358.775 114.59 358.585C114.668 358.396 114.783 358.223 114.928 358.078C115.073 357.933 115.245 357.818 115.434 357.74C115.623 357.661 115.826 357.621 116.031 357.621H210.518C210.932 357.621 211.329 357.786 211.622 358.078C211.914 358.371 212.078 358.769 212.078 359.183C212.07 359.594 211.903 359.986 211.612 360.277C211.321 360.568 210.929 360.736 210.518 360.744Z" fill="white"/>
<path d="M210.518 384.559H116.031C115.826 384.559 115.623 384.518 115.434 384.44C115.245 384.361 115.073 384.246 114.928 384.101C114.783 383.956 114.668 383.784 114.59 383.595C114.512 383.405 114.471 383.202 114.471 382.997C114.471 382.792 114.512 382.589 114.59 382.4C114.668 382.21 114.783 382.038 114.928 381.893C115.073 381.748 115.245 381.633 115.434 381.554C115.623 381.476 115.826 381.436 116.031 381.436H210.518C210.723 381.436 210.926 381.476 211.115 381.554C211.305 381.633 211.477 381.748 211.622 381.893C211.766 382.038 211.881 382.21 211.96 382.4C212.038 382.589 212.078 382.792 212.078 382.997C212.07 383.409 211.903 383.801 211.612 384.092C211.321 384.383 210.929 384.55 210.518 384.559Z" fill="white"/>
<path d="M210.518 393.537H116.031C115.826 393.537 115.623 393.497 115.434 393.418C115.245 393.34 115.073 393.225 114.928 393.08C114.783 392.935 114.668 392.763 114.59 392.573C114.512 392.384 114.471 392.181 114.471 391.976C114.471 391.771 114.512 391.568 114.59 391.378C114.668 391.189 114.783 391.016 114.928 390.871C115.073 390.726 115.245 390.611 115.434 390.533C115.623 390.454 115.826 390.414 116.031 390.414H210.518C210.932 390.414 211.329 390.579 211.622 390.871C211.914 391.164 212.078 391.562 212.078 391.976C212.07 392.387 211.903 392.779 211.612 393.07C211.321 393.361 210.929 393.529 210.518 393.537Z" fill="white"/>
<path d="M250.798 298.057H149.959C149.516 298.057 149.091 297.881 148.778 297.567C148.464 297.253 148.288 296.828 148.288 296.384C148.288 295.94 148.464 295.515 148.778 295.201C149.091 294.887 149.516 294.711 149.959 294.711H250.798C251.241 294.711 251.666 294.887 251.98 295.201C252.293 295.515 252.469 295.94 252.469 296.384C252.469 296.828 252.293 297.253 251.98 297.567C251.666 297.881 251.241 298.057 250.798 298.057Z" fill="#EBEBF0"/>
<path d="M250.798 308.821H149.959C149.516 308.821 149.091 308.645 148.778 308.331C148.464 308.017 148.288 307.591 148.288 307.148C148.288 306.704 148.464 306.278 148.778 305.965C149.091 305.651 149.516 305.475 149.959 305.475H250.798C251.241 305.475 251.666 305.651 251.98 305.965C252.293 306.278 252.469 306.704 252.469 307.148C252.469 307.591 252.293 308.017 251.98 308.331C251.666 308.645 251.241 308.821 250.798 308.821Z" fill="#EBEBF0"/>
<path d="M231.633 381.77L225.282 428.06C225.012 430.014 225.223 432.005 225.895 433.86L237.26 467.323L243.89 465.259L238.876 431.964C238.774 431.276 238.812 430.574 238.987 429.9L247.623 400.118L251.355 467.267H257.484L262.776 400.955C264.559 389.912 261.272 381.714 261.272 381.714L231.633 381.77Z" fill="url(#paint3_linear)"/>
<path d="M264.169 340.945V372.735C264.169 376.639 263.556 379.762 259.656 379.762H232.469C228.569 379.762 228.458 376.639 228.402 372.735L228.179 351.095C228.179 351.095 222.33 361.58 217.65 360.576C212.97 359.572 199.098 340.387 199.098 340.387L206.006 334.587L217.65 346.299C217.65 346.299 219.544 342.06 222.218 332.523C224.892 322.986 233.806 322.931 233.806 322.931H257.428C265.952 322.931 264.169 340.945 264.169 340.945Z" fill="url(#paint4_linear)"/>
<path d="M264.002 308.82C264.002 308.82 272.637 326.556 273.083 332.635C273.529 338.714 264.28 346.912 264.28 346.912L257.372 322.93H263.946V308.82H264.002Z" fill="#A3D8D8"/>
<path d="M264.002 308.82C264.002 308.82 272.637 326.556 273.083 332.635C273.529 338.714 264.28 346.912 264.28 346.912L257.372 322.93H263.946V308.82H264.002Z" fill="#5A9EA8"/>
<path d="M264.336 346.913C264.336 346.913 269.963 331.408 269.35 327.895C268.737 324.381 264.002 313.115 264.002 313.115V322.987L255.701 323.154L264.336 346.913Z" fill="url(#paint5_linear)"/>
<path d="M261.272 379.595H231.633V381.77H261.272V379.595Z" fill="#68E1FD"/>
<path d="M261.272 379.595H231.633V381.77H261.272V379.595Z" fill="#403C5D"/>
<path d="M250.241 301.348H241.717V323.099H250.241V301.348Z" fill="url(#paint6_linear)"/>
<path d="M250.241 298.949V323.098H245.728V321.648C245.728 320.79 245.388 319.968 244.782 319.361C244.176 318.754 243.354 318.413 242.497 318.413H242.218C241.153 318.419 240.098 318.213 239.112 317.809C238.127 317.406 237.231 316.811 236.475 316.06C235.72 315.308 235.119 314.415 234.709 313.432C234.299 312.448 234.087 311.393 234.084 310.327V299.005H250.241V298.949Z" fill="url(#paint7_linear)"/>
<path d="M236.257 291.587C238.04 290.583 240.213 290.472 242.33 290.416L246.731 290.304C247.717 290.258 248.704 290.295 249.684 290.416C250.625 290.572 251.526 290.912 252.335 291.417C253.145 291.922 253.847 292.582 254.4 293.359C254.954 294.136 255.349 295.016 255.563 295.946C255.776 296.877 255.804 297.84 255.645 298.782C255.548 299.298 255.399 299.802 255.199 300.288C255.03 300.639 254.917 301.016 254.865 301.403C254.96 302.013 255.167 302.599 255.478 303.132C256.091 304.805 255.088 306.59 253.974 307.928C252.859 309.267 251.522 310.661 251.355 312.446C251.299 313.003 251.355 313.673 250.965 314.119C250.725 314.338 250.417 314.468 250.093 314.489C249.769 314.509 249.448 314.418 249.182 314.23C248.673 313.843 248.254 313.348 247.957 312.78C248.012 313.617 246.842 314.063 246.118 313.673C245.778 313.437 245.492 313.131 245.281 312.775C245.069 312.419 244.937 312.021 244.892 311.609C244.796 310.791 244.55 309.997 244.168 309.267C243.778 308.709 243.165 308.319 242.998 307.649C242.664 306.534 243.778 305.307 243.333 304.192C242.998 303.299 241.717 303.02 240.826 303.411C239.972 303.884 239.26 304.577 238.764 305.419C239.6 304.303 238.931 302.407 238.04 301.515C236.647 300.009 234.586 301.291 233.416 300.232C231.243 298.112 234.307 292.703 236.257 291.587Z" fill="#3F3D56"/>
<path opacity="0.25" d="M248.347 323.042C248.347 323.042 245.004 327.392 240.436 327.392C235.867 327.392 222.441 340.554 221.549 344.514C220.658 348.474 217.649 346.299 217.649 346.299C217.649 346.299 219.544 342.06 222.218 332.523C224.892 322.986 233.806 322.931 233.806 322.931H245.84L248.347 323.042Z" fill="white"/>
<path d="M243.834 464.702L246.174 470.447L236.759 474.908L228.012 475.522C228.012 475.522 226.508 469.777 230.575 469.275C232.951 469.004 235.216 468.12 237.149 466.71L243.834 464.702Z" fill="#3C3856"/>
<path d="M251.299 467.268C250.117 467.764 249.09 468.569 248.325 469.6C247.561 470.63 247.087 471.847 246.954 473.124L246.731 475.522H257.428V467.268H251.299Z" fill="#3C3856"/>
<path d="M205.95 334.643L201.437 329.066C201.437 329.066 199.877 323.098 199.042 326.779C198.54 328.843 197.203 332.58 197.203 332.58H190.295C190.295 332.58 195.142 337.71 197.203 338.659C198.144 339.072 199.138 339.354 200.156 339.495L205.95 334.643Z" fill="#E8BBD1"/>
<path d="M400.537 0H195.463C188.58 0 183 4.86324 183 10.8623V113.138C183 119.137 188.58 124 195.463 124H400.537C407.42 124 413 119.137 413 113.138V10.8623C413 4.86324 407.42 0 400.537 0Z" fill="#F3F3F6"/>
<path d="M241.667 25.2324H206.779C204.57 25.2324 202.779 27.0233 202.779 29.2324V99.3597C202.779 101.569 204.57 103.36 206.779 103.36H241.667C243.876 103.36 245.667 101.569 245.667 99.3597V29.2324C245.667 27.0233 243.876 25.2324 241.667 25.2324Z" fill="#403C5E"/>
<path d="M239.244 21.5498H201.925C199.716 21.5498 197.925 23.3407 197.925 25.5498V96.8837C197.925 99.0929 199.716 100.884 201.925 100.884H239.244C241.453 100.884 243.244 99.0929 243.244 96.8837V25.5498C243.244 23.3407 241.453 21.5498 239.244 21.5498Z" fill="url(#paint8_linear)"/>
<path d="M236.046 72.558C235.793 75.2581 235.698 78.6578 234.668 81.1811C233.737 83.4686 230.442 82.8397 228.461 82.8712C225.012 82.9288 221.564 82.8974 218.118 82.7768C216.458 82.7192 214.799 82.6406 213.141 82.541C211.697 82.4506 210.217 82.541 208.919 81.9043C208.735 81.8874 208.557 81.8329 208.395 81.7444C208.234 81.6558 208.092 81.5349 207.98 81.3894C207.037 80.1278 207.167 78.2805 207.1 76.7556C206.991 75.0932 207.124 73.424 207.494 71.7994C207.53 71.6879 207.6 71.5904 207.695 71.5213C207.789 71.4521 207.904 71.4149 208.021 71.4149C208.139 71.4149 208.253 71.4521 208.348 71.5213C208.442 71.5904 208.513 71.6879 208.548 71.7994C208.943 73.4462 209.152 75.1127 209.467 76.7791C209.625 77.5966 209.886 78.3945 210.024 79.1963C211.164 79.0666 212.392 79.3103 213.516 79.3849C215.048 79.4871 216.579 79.5697 218.11 79.6326C221.172 79.7636 224.237 79.8252 227.305 79.8173C228.2 79.8173 229.092 79.8173 229.988 79.7976C230.43 79.7976 231.275 79.9195 231.847 79.8605C231.709 79.719 232.06 79.0509 232.147 78.6185C232.293 77.9071 232.423 77.1918 232.541 76.4765C232.804 74.9384 233.002 73.3925 233.133 71.8387C233.196 71.143 233.563 69.5905 233.461 68.6276C232.581 68.5922 231.515 68.8831 230.746 68.9538L227.317 69.2722C225.03 69.487 222.745 69.715 220.462 69.9561C218.052 70.2181 215.642 70.4565 213.232 70.6714C210.963 70.8797 208.639 70.7382 206.393 70.9819C205.683 71.0566 205.529 69.8578 206.228 69.7438C209.716 69.17 213.141 68.1953 216.677 67.704C219.834 67.2638 222.991 66.9179 226.172 66.5524C227.695 66.3834 229.223 66.2105 230.746 66.0572C232.024 65.9275 233.733 65.4087 234.976 65.9393C237.23 66.8983 236.219 70.7186 236.046 72.558Z" fill="white"/>
<path d="M213.686 40.6792C214.655 42.0053 215.758 43.2289 216.978 44.3304C214.326 46.838 211.504 49.7818 210.344 53.158C209.799 54.7301 212.025 55.4258 212.881 54.2231C214.089 52.5291 215.024 50.6858 216.358 49.0704C217.203 48.0446 218.106 47.0699 219.038 46.1188C222.076 48.6302 225.281 50.9295 227.838 53.9794C229.187 55.5869 231.52 53.2641 230.154 51.6723C227.562 48.6538 224.266 46.4646 221.153 44.0435C224.018 41.2923 226.91 38.5843 229.412 35.4754C230.154 34.5557 228.931 33.2469 228.079 34.1509C225.292 37.0986 222.124 39.6533 219.113 42.3692C217.633 41.0793 216.273 39.66 215.048 38.1284C213.742 36.4973 212.412 34.933 210.64 33.7853C209.851 33.2862 208.951 34.4496 209.649 35.0666C211.421 36.6348 212.325 38.7808 213.686 40.6792Z" fill="white"/>
<path d="M317.742 25.2324H282.854C280.645 25.2324 278.854 27.0233 278.854 29.2324V99.3597C278.854 101.569 280.645 103.36 282.854 103.36H317.742C319.951 103.36 321.742 101.569 321.742 99.3597V29.2324C321.742 27.0233 319.951 25.2324 317.742 25.2324Z" fill="#403C5E"/>
<path d="M315.319 21.5498H278C275.791 21.5498 274 23.3407 274 25.5498V96.8837C274 99.0929 275.791 100.884 278 100.884H315.319C317.528 100.884 319.319 99.0929 319.319 96.8837V25.5498C319.319 23.3407 317.528 21.5498 315.319 21.5498Z" fill="url(#paint9_linear)"/>
<path d="M393.742 25.2324H358.854C356.645 25.2324 354.854 27.0233 354.854 29.2324V99.3597C354.854 101.569 356.645 103.36 358.854 103.36H393.742C395.951 103.36 397.742 101.569 397.742 99.3597V29.2324C397.742 27.0233 395.951 25.2324 393.742 25.2324Z" fill="#403C5E"/>
<path d="M391.319 21.5498H354C351.791 21.5498 350 23.3407 350 25.5498V96.8837C350 99.0929 351.791 100.884 354 100.884H391.319C393.528 100.884 395.319 99.0929 395.319 96.8837V25.5498C395.319 23.3407 393.528 21.5498 391.319 21.5498Z" fill="url(#paint10_linear)"/>
<path d="M367.086 48.7714C368.314 48.9247 369.691 49.2549 370.883 48.74C373.128 47.7653 372.706 45.014 372.706 43.0253C372.706 39.6884 372.734 36.3437 372.706 33.0147C372.686 30.4993 371.719 29.6268 369.21 30.0041C365.926 30.4977 362.578 30.3643 359.344 29.611C359.06 29.5377 358.761 29.5531 358.486 29.655C358.212 29.757 357.975 29.9406 357.809 30.1809C357.669 30.1465 357.522 30.1526 357.386 30.1985C357.25 30.2445 357.129 30.3284 357.039 30.4403C355.461 32.5902 355.484 35.2393 355.299 37.7979C355.184 39.4212 355.137 41.0444 355.109 42.6716C355.086 43.7878 354.75 45.4935 355.386 46.5272C355.859 47.2936 356.743 47.3958 357.552 47.5255C359.202 47.7928 360.859 48.0011 362.521 48.2094L367.086 48.7714ZM357.832 44.7664C357.418 42.5694 357.742 39.9635 357.675 37.7861C357.619 35.9271 357.446 33.9423 357.864 32.1068C358.052 32.2839 358.286 32.4063 358.539 32.4605C360.532 32.9275 362.566 33.2 364.612 33.2741C366.313 33.3252 367.978 33.0186 369.652 32.9047C369.655 32.9412 369.655 32.9781 369.652 33.0147C369.652 33.6514 369.652 34.296 369.652 34.9406V38.4032C369.652 39.5587 369.652 40.7142 369.652 41.8698C369.652 42.8327 369.959 44.4441 369.652 45.3363C369.498 45.7922 369.719 45.7844 369.174 45.9927C368.874 46.1067 368.152 45.8826 367.836 45.8433C366.692 45.7058 365.547 45.5604 364.403 45.4149C363.259 45.2695 362.114 45.1241 360.97 44.9865C360.24 44.9001 358.768 44.9983 357.832 44.7664Z" fill="white"/>
<path d="M362.994 55.8978C362.746 55.9213 362.497 55.9331 362.252 55.9567C362.022 55.9567 361.801 56.0478 361.639 56.21C361.476 56.3721 361.384 56.5921 361.384 56.8214C361.384 57.0507 361.476 57.2707 361.639 57.4328C361.801 57.595 362.022 57.6861 362.252 57.6861H362.422C362.347 58.7853 362.347 59.8883 362.422 60.9876C362.458 62.0252 362.462 63.0746 363.531 63.6012C364.6 64.1279 366.132 63.9117 367.288 63.9589L372.26 64.1593L382.592 64.5799C384.249 64.6506 385.906 64.7292 387.564 64.7803C388.629 64.8157 389.794 64.9022 390.622 64.0886C391.826 62.9095 392.26 58.8612 391.376 57.4738C390.796 56.5581 389.703 56.5581 388.744 56.4598C386.936 56.2711 385.121 56.1296 383.306 55.9999C377.08 55.495 370.826 55.4162 364.589 55.7641C364.348 55.5996 364.058 55.523 363.768 55.5474C363.477 55.5718 363.204 55.6956 362.994 55.8978ZM375.907 58.256C378.117 58.3739 380.322 58.535 382.528 58.7119C383.566 58.7944 384.6 58.8848 385.638 58.9791C386.392 59.0538 387.884 58.9791 388.846 59.2071C388.917 60.1229 388.87 61.5653 388.452 61.8601C388.034 62.1549 385.891 61.7776 385.295 61.75L378.026 61.4238L371.136 61.1133L367.694 60.9561L366.163 60.8854C366.045 60.8854 365.709 60.8343 365.398 60.7989C365.323 59.8124 365.445 58.8101 365.378 57.8236C368.87 57.969 372.39 58.0673 375.907 58.256Z" fill="white"/>
<path d="M388.317 70.3565C385.322 70.1482 382.287 70.1639 379.288 70.1207C373.436 70.0342 367.623 70.164 361.826 70.9775C361.293 71.0522 361.226 71.5671 361.431 71.9405C361.419 71.966 361.408 71.9922 361.399 72.0191C361.005 73.1982 361.005 74.4598 360.721 75.6782C360.661 75.9122 360.654 76.1566 360.702 76.3933C360.751 76.63 360.852 76.8527 360.999 77.0448C361.146 77.2369 361.335 77.3934 361.551 77.5025C361.767 77.6116 362.005 77.6705 362.248 77.6748C368.152 77.625 374.053 77.7037 379.951 77.9107C382.445 78.005 385.334 78.5395 387.796 78.1425C390.164 77.7495 390.401 75.3913 390.657 73.3908C390.91 71.4688 390.243 70.4902 388.317 70.3565ZM387.133 75.124C386.502 75.4896 384.584 75.0415 383.818 74.9983C381.383 74.8568 378.945 74.7664 376.51 74.6917C372.403 74.5659 368.295 74.5083 364.186 74.5188C364.285 73.8465 364.272 73.1625 364.146 72.4946C368.017 72.7462 371.881 72.7973 375.768 72.8877C377.994 72.9348 380.219 72.9506 382.445 73.0017L385.582 73.0842L387.555 73.1471L387.832 73.1746C387.737 73.9803 387.544 74.8764 387.117 75.124H387.133Z" fill="white"/>
<path d="M263.709 58.3576C262.378 57.6474 261.006 57.0161 259.6 56.4671C259.382 56.4036 259.151 56.4004 258.932 56.4579C258.712 56.5153 258.512 56.6313 258.353 56.7933C258.237 56.9145 258.143 57.0556 258.077 57.2099L258.026 57.3553C257.96 57.5723 257.956 57.8031 258.014 58.0223C258.072 58.2414 258.189 58.4404 258.353 58.5973C258.805 58.9396 259.277 59.2546 259.766 59.5406L259.372 59.5603C257.919 59.6271 256.372 59.6467 254.975 60.0712C253.713 60.4642 253.638 62.3469 254.975 62.6967C256.392 63.0661 257.915 63.0386 259.372 63.0465H259.766C259.258 63.5887 258.803 64.1783 258.409 64.8073C257.438 66.4462 259.569 67.8061 260.903 66.7253C262.004 65.8331 262.856 64.599 263.768 63.522C264.47 62.6927 265.595 61.7848 265.611 60.6057C265.626 59.4266 264.671 58.8567 263.709 58.3576Z" fill="#403C5E"/>
<path d="M339.709 58.3576C338.378 57.6474 337.006 57.0161 335.6 56.4671C335.382 56.4036 335.151 56.4004 334.932 56.4579C334.712 56.5153 334.512 56.6313 334.353 56.7933C334.237 56.9145 334.143 57.0556 334.077 57.2099L334.026 57.3553C333.96 57.5723 333.956 57.8031 334.014 58.0223C334.072 58.2414 334.189 58.4404 334.353 58.5973C334.805 58.9396 335.277 59.2546 335.766 59.5406L335.372 59.5603C333.919 59.6271 332.372 59.6467 330.975 60.0712C329.713 60.4642 329.638 62.3469 330.975 62.6967C332.392 63.0661 333.915 63.0386 335.372 63.0465H335.766C335.258 63.5887 334.803 64.1783 334.409 64.8073C333.438 66.4462 335.569 67.8061 336.903 66.7253C338.004 65.8331 338.856 64.599 339.768 63.522C340.47 62.6927 341.595 61.7848 341.611 60.6057C341.626 59.4266 340.671 58.8567 339.709 58.3576Z" fill="#403C5E"/>
<path d="M320.426 58.3225C319.184 57.5256 317.842 56.894 316.436 56.4438C315.733 56.2512 314.313 56.4634 314.388 57.501C314.443 58.2871 314.999 58.9042 315.725 59.4112C315.031 59.4859 314.332 59.5291 313.63 59.537C312.636 59.537 311.527 59.5055 310.591 59.8789C310.395 59.9409 310.22 60.0575 310.087 60.2151C309.954 60.3726 309.87 60.5646 309.843 60.7684C309.816 60.9722 309.848 61.1795 309.935 61.3658C310.022 61.5522 310.161 61.7099 310.335 61.8205C311.728 62.7952 313.725 62.7991 315.568 62.6066C315.003 63.3494 314.384 64.0844 314.411 65.0512C314.411 65.9238 315.331 66.7491 316.231 66.4308C317.363 66.0377 317.829 65.0669 318.492 64.1276C319.336 62.9288 320.177 61.7301 321.006 60.5195C321.216 60.1503 321.273 59.7139 321.164 59.3035C321.056 58.8931 320.791 58.541 320.426 58.3225Z" fill="url(#paint11_linear)"/>
<path d="M285.576 45.1052C288.63 43.7689 290.84 40.7819 293.417 38.7499L294.601 37.8184C295.639 38.632 296.669 39.4613 297.726 40.267C299.309 41.4965 300.978 42.6104 302.722 43.5999C304.494 44.5864 306.72 46.0328 308.799 45.628C309.77 45.4393 309.873 44.2406 309.336 43.6039C308.614 42.7549 307.884 42.6055 306.854 42.1889C305.634 41.6885 304.447 41.1095 303.302 40.4556C301.511 39.4377 299.841 38.235 298.145 37.0756L296.751 36.1205C297.19 35.7785 297.628 35.4366 298.058 35.0868C298.847 34.4579 299.636 33.8369 300.425 33.1806C300.911 32.7679 302.399 30.9875 303.038 31.1486C303.183 31.1887 303.339 31.1697 303.47 31.0956C303.602 31.0215 303.698 30.8985 303.738 30.7536C303.779 30.6087 303.76 30.4538 303.685 30.323C303.611 30.1921 303.487 30.0961 303.342 30.056C301.846 29.6629 300.792 30.6809 299.573 31.463C297.931 32.5124 296.345 33.6483 294.759 34.7842C292.52 33.2655 290.119 31.9987 287.6 31.0071C286.57 30.6141 285.828 32.3356 286.842 32.7915C288.898 33.7432 290.842 34.9204 292.635 36.3013C291.416 37.1659 290.205 38.0463 289.06 39.0054C287.482 40.3417 286.077 41.7841 284.139 42.6291C282.43 43.372 283.894 45.8324 285.576 45.1052Z" fill="white"/>
<path d="M312.142 53.9834C302.999 53.8404 293.857 54.2788 284.77 55.2962C284.596 55.0031 284.331 54.7743 284.015 54.6442C283.699 54.5142 283.349 54.4899 283.018 54.575C282.687 54.6601 282.392 54.85 282.179 55.1162C281.965 55.3823 281.845 55.7103 281.834 56.0508C281.712 58.4797 281.74 60.9244 281.708 63.3612C281.708 64.7997 281.282 66.8003 282.785 67.6414C284.289 68.4824 287 67.7868 288.677 67.6767C291.206 67.5117 293.734 67.3138 296.262 67.0832C300.848 66.6588 305.733 66.3719 310.216 65.3578C311.731 65.0159 312.319 64.1001 312.521 62.6066C312.848 60.1541 313.105 57.6897 313.401 55.2293C313.48 54.5494 312.758 53.9913 312.142 53.9834ZM310.169 60.7672C310.031 61.8245 310.327 62.6655 309.111 62.8699C308.117 63.035 307.095 63.0979 306.092 63.2079C302.568 63.601 299.036 63.88 295.504 64.163C293.734 64.3045 291.963 64.4355 290.193 64.556C289.182 64.6189 288.172 64.6739 287.158 64.729C286.487 64.7643 285.485 64.6071 284.881 64.839H284.798C284.798 64.5953 284.798 64.3556 284.798 64.1119L284.845 61.9188C284.881 60.2327 284.948 58.5387 284.944 56.8526C293.508 56.377 302.142 56.2748 310.717 56.4595C310.538 57.8902 310.356 59.3261 310.169 60.7672Z" fill="white"/>
<path d="M308.101 75.0026C303.523 74.9712 298.93 75.0026 294.356 75.2109C290.737 75.3799 286.823 75.3406 283.397 76.6769C282.691 75.9813 281.31 76.5394 281.16 77.6595C280.726 80.9021 281.29 84.4158 281.507 87.674C281.558 88.4601 282.174 89.2776 283.05 89.2108C289.715 88.6723 296.499 87.7408 303.176 87.9099C304.36 87.9413 306.041 88.4169 307.158 87.9963C308.172 87.6033 308.381 86.6561 308.594 85.701C309.257 82.6093 309.522 79.4462 309.384 76.2878C309.378 75.9502 309.241 75.6279 309.002 75.3884C308.763 75.1489 308.44 75.0107 308.101 75.0026ZM306.061 85.0014L305.97 85.3944H305.86C305.465 85.1311 304.471 85.2608 303.957 85.2294C302.557 85.1429 301.152 85.135 299.751 85.1625C294.676 85.2687 289.601 85.6892 284.534 86.0272C284.459 83.3742 284.447 80.6112 283.914 78.0447C287.569 77.0778 291.787 77.5888 295.501 77.5377C299.277 77.4866 303.054 77.4945 306.83 77.5377C306.83 78.5046 306.803 79.4753 306.728 80.4461C306.617 81.9908 306.136 83.5039 306.061 85.0014Z" fill="white"/>
<defs>
<linearGradient id="paint0_linear" x1="141.018" y1="167.385" x2="141.018" y2="465.65" gradientUnits="userSpaceOnUse">
<stop stop-color="#52ABB6"/>
<stop offset="0.28125" stop-color="#4498BD"/>
<stop offset="0.666667" stop-color="#3E8EC0"/>
<stop offset="1" stop-color="#A44C96"/>
</linearGradient>
<linearGradient id="paint1_linear" x1="8552.5" y1="733.178" x2="8552.34" y2="799.45" gradientUnits="userSpaceOnUse">
<stop stop-opacity="0"/>
<stop offset="0.85" stop-opacity="0.51"/>
<stop offset="0.99"/>
</linearGradient>
<linearGradient id="paint2_linear" x1="54879.2" y1="23193" x2="54862.7" y2="33899.2" gradientUnits="userSpaceOnUse">
<stop stop-color="#6FAAC9"/>
<stop offset="0.99" stop-color="#A04F98"/>
</linearGradient>
<linearGradient id="paint3_linear" x1="263.517" y1="424.742" x2="203.906" y2="424.742" gradientUnits="userSpaceOnUse">
<stop stop-color="#3F3D56"/>
<stop offset="1" stop-color="#74728E"/>
</linearGradient>
<linearGradient id="paint4_linear" x1="198.891" y1="351.123" x2="272.988" y2="351.123" gradientUnits="userSpaceOnUse">
<stop offset="0.0297719" stop-color="#6AB2AA"/>
<stop offset="0.510417" stop-color="#579EB2"/>
<stop offset="1" stop-color="#4188BB"/>
</linearGradient>
<linearGradient id="paint5_linear" x1="262.549" y1="313.115" x2="262.549" y2="346.913" gradientUnits="userSpaceOnUse">
<stop stop-color="#3E84B9"/>
<stop offset="1" stop-color="#3E84B9"/>
</linearGradient>
<linearGradient id="paint6_linear" x1="243.333" y1="312.273" x2="257.367" y2="312.017" gradientUnits="userSpaceOnUse">
<stop stop-color="#ECC4D7"/>
<stop offset="0.42" stop-color="#EFD4D1"/>
<stop offset="1" stop-color="#F2EAC9"/>
</linearGradient>
<linearGradient id="paint7_linear" x1="9635.37" y1="-3045.15" x2="9539.96" y2="-3011.33" gradientUnits="userSpaceOnUse">
<stop stop-color="#FCD0E4"/>
<stop offset="1" stop-color="#E9B4CD"/>
</linearGradient>
<linearGradient id="paint8_linear" x1="201.5" y1="21.9998" x2="243" y2="101" gradientUnits="userSpaceOnUse">
<stop stop-color="#C570A3"/>
<stop offset="0.209996" stop-color="#AF4792"/>
<stop offset="0.663297" stop-color="#59AFC1"/>
<stop offset="1" stop-color="#428DBD"/>
</linearGradient>
<linearGradient id="paint9_linear" x1="277.575" y1="21.9998" x2="319.075" y2="101" gradientUnits="userSpaceOnUse">
<stop stop-color="#C570A3"/>
<stop offset="0.209996" stop-color="#AF4792"/>
<stop offset="0.663297" stop-color="#59AFC1"/>
<stop offset="1" stop-color="#428DBD"/>
</linearGradient>
<linearGradient id="paint10_linear" x1="353.575" y1="21.9998" x2="395.075" y2="101" gradientUnits="userSpaceOnUse">
<stop stop-color="#C570A3"/>
<stop offset="0.209996" stop-color="#AF4792"/>
<stop offset="0.663297" stop-color="#59AFC1"/>
<stop offset="1" stop-color="#428DBD"/>
</linearGradient>
<linearGradient id="paint11_linear" x1="4455.27" y1="2004" x2="4445.1" y2="3417.37" gradientUnits="userSpaceOnUse">
<stop stop-opacity="0"/>
<stop offset="0.97"/>
</linearGradient>
</defs>
</svg>
